<svg xmlns="http://www.w3.org/2000/svg" viewBox="0 0 220 220">
  <path d="M145.138 194.506c-3.537 4.627-5.852 7.429-7.772 9.558-6.153 6.893-11.633 10.601-18.093 12.062-4.398.991-9.843.757-14.653-.625-5.947-1.709-10.985-5.112-15.229-10.042-.661-.761-2.227-2.864-2.797-3.741-3.147-4.852-5.234-10.323-6.346-16.567-1.287-7.248-1.078-14.908.603-22.9.766-3.627 1.201-6.83 1.468-10.444.37-4.996.405-9.53.12-18.656-.221-7.06-.261-9.67-.215-12.844.05-3.03.242-5.69.555-8.18.313-2.5.712-4.744 1.304-6.763 1.442-4.952 3.826-9.095 7.214-12.4.873-.848 1.517-1.464 2.707-2.367 5.128-3.887 10.56-6.342 15.877-7.227 5.408-.894 11.049-.33 18.16 1.832 2.552.776 4.841 1.644 10.978 3.933 7.318 2.73 10.861 3.903 15.219 5.016 4.656 1.186 8.393 1.84 13.357 2.234 5.023.395 9.51 1.177 13.798 2.418 8.95 2.586 16.312 6.938 21.743 12.749.93 1.003 1.603 1.728 2.549 2.992 1.275 1.705 2.017 2.857 2.917 4.608 2.59 5.002 3.697 10.425 3.332 16.022-.054.926-.41 3.457-.61 4.347-1.299 5.966-3.98 11.214-7.722 15.205-1.248 1.32-1.623 1.738-3.675 3.309-1.048.81-2.027 1.446-2.11 1.502-.083.05-.446.272-.777.483a54.323 54.323 0 01-4.906 2.788c-2.54 1.244-4.68 2.097-10.229 4.308-4.781 1.902-6.788 2.773-8.97 3.765-7.193 3.247-12.566 6.728-16.845 10.795-2.986 2.852-5.93 6.264-10.952 12.83zm-79.114-89.28c-3.203 1.992-6.958 3.166-11.125 3.404-10.359.605-21.902-4.27-30.589-12.916-1.557-1.552-2.026-2.188-3.78-4.435-1.716-2.197-2.023-2.607-3.06-4.334-3.508-5.88-5.306-12.12-5.058-17.967.035-.857.415-3.501.602-4.284.647-2.562 1.585-4.655 3.015-6.665 2.423-3.39 6-5.945 10.2-7.31 3.982-1.292 8.653-1.534 13.317-.736 8.291 1.42 16.372 5.605 23.02 11.987 2.563 2.45 4.921 5.48 6.769 8.392 5.007 7.904 6.824 16.544 4.862 23.724-.22.793-.695 2.293-1.041 3.046-1.075 2.351-2.712 4.452-4.663 6.2-.567.498-1.831 1.496-2.469 1.894zm87.09-86.89c1.124-.808 1.843-1.183 2.975-1.726 1.542-.75 3-1.163 4.691-1.477 2.116-.404 3.861-.416 6.042-.11 5.012.713 9.641 3.303 13.782 7.765.702.763 2.557 3.168 3.191 4.14 3.593 5.54 5.682 11.934 6.09 18.83.17 2.946-.016 5.494-.492 8.507-.918 5.842-3.35 11.32-6.857 15.236-.994 1.106-1.445 1.488-2.847 2.574-.723.563-1.49 1.165-1.719 1.307-3.764 2.339-8.108 3.261-12.417 2.655-7.341-1.031-14.23-6.295-18.637-14.403-3.509-6.457-5.169-14.51-4.587-21.955.082-1.06.25-1.996.427-3.035.582-3.504 1.573-6.347 3.077-9.329 1.908-3.77 4.222-6.76 7.28-8.979zM55.53 164.48c-4.221 2.653-9.356 3.93-15.035 3.637-8.62-.46-17.614-4.66-24.099-11.12-1.356-1.343-1.718-1.728-3.227-3.73-1.478-1.961-1.779-2.36-2.62-3.883-1.117-2.044-2.086-4.557-2.59-6.574a22.567 22.567 0 01-.568-7.584c.371-4.019 1.927-7.634 4.646-10.595 1.309-1.435 3.032-2.753 4.862-3.774 7.035-3.907 17.009-3.828 26.107.155 6.41 2.81 11.987 7.324 15.785 12.76 6.165 8.839 6.881 18.65 1.878 25.806-.688.988-1.291 1.58-2.223 2.496-.63.625-2.19 1.95-2.916 2.406zM82.607 60.147c-.798-.897-2.908-3.797-3.664-4.937-5.627-8.57-8.398-18.798-7.649-28.32.093-1.134.415-3.534.64-4.551 1.227-5.66 3.722-10.214 7.32-13.601.79-.742 2.705-2.231 3.555-2.715 5.327-3.024 11.308-3.39 17.66-1.095 4.96 1.807 9.717 5.124 13.993 9.95.675.759 2.702 3.51 3.358 4.516 7.846 11.915 10.075 26.798 5.584 38.028-1.792 4.48-4.713 8.302-8.192 10.634-5.355 3.594-11.844 4.236-18.477 1.923-5.079-1.762-9.831-5.048-14.128-9.832zm51.268 122.527c6.164 0 11.277-2.357 15.337-7.07 4.06-4.712 6.77-11.361 8.127-19.946.976-6.917 1.464-11.63 1.464-14.139 0-6.844-1.693-12.127-5.079-15.85-3.381-3.726-8.044-5.59-13.988-5.59-2.18 0-4.757.419-7.73 1.255-2.967.836-5.73 1.938-8.289 3.306L128.344 95h-16.693L98 181.992h14.778l2.933-5.815c2.181 1.9 4.888 3.459 8.121 4.677a28.35 28.35 0 0010.043 1.82zm-5.194-13.566c-2.482 0-4.588-.305-6.32-.914-1.726-.609-3.378-1.52-4.957-2.733l4.398-28.734c1.88-.914 3.927-1.654 6.144-2.222 2.221-.568 4.31-.852 6.266-.852 5.189 0 7.783 3.494 7.783 10.484 0 1.673-.189 4.029-.566 7.07-.9 6.385-2.383 10.966-4.452 13.742-2.068 2.773-4.833 4.159-8.296 4.159z" fill="#38A169" fill-rule="nonzero"/>
</svg>
